<svg width="51" height="428" viewBox="0 0 51 428" fill="none" xmlns="http://www.w3.org/2000/svg">
<path d="M21.64 387.496C22.152 385.832 23.2827 384.403 25.032 383.208C26.7387 382.013 28.7013 381.416 30.92 381.416C35.656 381.416 39.1973 382.952 41.544 386.024C43.848 389.096 45 393.576 45 399.464L45 425.832C45 426.301 44.8293 426.707 44.488 427.048C44.1467 427.389 43.7413 427.56 43.272 427.56H1.928C1.45867 427.56 1.05333 427.389 0.711998 427.048C0.370664 426.707 0.199997 426.301 0.199997 425.832L0.199997 400.104C0.199997 394.045 1.30933 389.587 3.528 386.728C5.704 383.827 9.01067 382.376 13.448 382.376H13.64C15.688 382.376 17.4373 382.931 18.888 384.04C20.3387 385.149 21.256 386.301 21.64 387.496ZM14.024 399.72C13.256 399.72 12.5947 399.955 12.04 400.424C11.4853 400.851 11.208 401.491 11.208 402.344V410.92H17.032V402.344C17.032 401.491 16.7333 400.851 16.136 400.424C15.496 399.955 14.792 399.72 14.024 399.72ZM33.992 401.64C33.992 400.659 33.672 399.933 33.032 399.464C32.3493 398.952 31.6027 398.696 30.792 398.696H30.728C29.9173 398.696 29.2133 398.973 28.616 399.528C28.0187 400.04 27.72 400.744 27.72 401.64V410.92H33.992V401.64ZM32.52 330.689C32.52 330.22 32.6907 329.814 33.032 329.473C33.3733 329.132 33.7787 328.961 34.248 328.961H43.272C43.7413 328.961 44.1467 329.132 44.488 329.473C44.8293 329.814 45 330.22 45 330.689L45 371.137C45 371.606 44.8293 372.012 44.488 372.353C44.1467 372.694 43.7413 372.865 43.272 372.865H1.928C1.45867 372.865 1.05333 372.694 0.711998 372.353C0.370664 372.012 0.199997 371.606 0.199997 371.137L0.199997 331.329C0.199997 330.86 0.370664 330.454 0.711998 330.113C1.05333 329.772 1.45867 329.601 1.928 329.601H10.952C11.4213 329.601 11.8267 329.772 12.168 330.113C12.5093 330.454 12.68 330.86 12.68 331.329L12.68 356.225H16.712L16.712 334.849C16.712 334.38 16.8827 333.974 17.224 333.633C17.5653 333.292 17.9707 333.121 18.44 333.121H26.76C27.2293 333.121 27.6347 333.292 27.976 333.633C28.3173 333.974 28.488 334.38 28.488 334.849V356.225H32.52L32.52 330.689ZM0.199997 274.97C0.199997 274.501 0.370664 274.095 0.711998 273.754C1.05333 273.413 1.45867 273.242 1.928 273.242H12.232C12.7013 273.242 13.1067 273.413 13.448 273.754C13.7893 274.095 13.96 274.501 13.96 274.97L13.96 288.73H43.272C43.7413 288.73 44.1467 288.901 44.488 289.242C44.8293 289.583 45 289.989 45 290.458V303.642C45 304.111 44.8293 304.517 44.488 304.858C44.1467 305.199 43.7413 305.37 43.272 305.37H13.96L13.96 319.13C13.96 319.599 13.7893 320.005 13.448 320.346C13.1067 320.687 12.7013 320.858 12.232 320.858H1.928C1.45867 320.858 1.05333 320.687 0.711998 320.346C0.370664 320.005 0.199997 319.599 0.199997 319.13L0.199997 274.97ZM42.824 251.891C44.2747 252.446 45 253.406 45 254.771V266.867C45 267.251 44.872 267.592 44.616 267.891C44.3173 268.147 43.976 268.275 43.592 268.275L43.208 268.211L2.312 254.259C1.75733 254.088 1.26667 253.768 0.839996 253.299C0.41333 252.83 0.199997 252.19 0.199997 251.379L0.199997 233.587C0.199997 232.776 0.41333 232.136 0.839996 231.667C1.26667 231.198 1.75733 230.878 2.312 230.707L43.208 216.755L43.592 216.691C43.976 216.691 44.3173 216.84 44.616 217.139C44.872 217.395 45 217.715 45 218.099V230.195C45 231.56 44.2747 232.52 42.824 233.075L38.344 234.675V250.291L42.824 251.891ZM12.552 242.483L25.864 247.027V237.939L12.552 242.483ZM38.024 165.772C38.024 165.303 38.1947 164.897 38.536 164.556C38.8773 164.215 39.2827 164.044 39.752 164.044H48.456C48.9253 164.044 49.3307 164.215 49.672 164.556C50.0133 164.897 50.184 165.303 50.184 165.772V210.892C50.184 211.361 50.0133 211.767 49.672 212.108C49.3307 212.449 48.9253 212.62 48.456 212.62H39.752C39.2827 212.62 38.8773 212.449 38.536 212.108C38.1947 211.767 38.024 211.361 38.024 210.892L38.024 165.772ZM43.272 139.557C43.656 139.685 44.04 140.005 44.424 140.517C44.808 140.986 45 141.605 45 142.373V151.333C45 152.144 44.7653 152.826 44.296 153.381C43.784 153.893 43.208 154.192 42.568 154.277L1.8 159.845H1.608C1.224 159.845 0.903998 159.717 0.647999 159.461C0.349331 159.162 0.199997 158.821 0.199997 158.437V147.429C0.199997 146.576 0.455997 145.893 0.967999 145.381C1.48 144.826 2.12 144.506 2.888 144.421L22.472 142.373L12.296 138.661C11.8693 138.533 11.464 138.234 11.08 137.765C10.6533 137.253 10.44 136.613 10.44 135.845V131.493C10.44 130.725 10.6533 130.106 11.08 129.637C11.464 129.125 11.8693 128.805 12.296 128.677L22.472 124.965L2.888 122.917C2.12 122.832 1.48 122.533 0.967999 122.021C0.455997 121.466 0.199997 120.762 0.199997 119.909L0.199997 108.901C0.199997 108.517 0.349331 108.197 0.647999 107.941C0.903998 107.642 1.224 107.493 1.608 107.493H1.8L42.568 113.061C43.208 113.146 43.784 113.466 44.296 114.021C44.7653 114.533 45 115.194 45 116.005V124.965C45 125.733 44.808 126.373 44.424 126.885C44.04 127.354 43.656 127.653 43.272 127.781L29.768 133.669L43.272 139.557ZM32.52 58.814C32.52 58.3447 32.6907 57.9393 33.032 57.598C33.3733 57.2567 33.7787 57.086 34.248 57.086H43.272C43.7413 57.086 44.1467 57.2567 44.488 57.598C44.8293 57.9393 45 58.3447 45 58.814L45 99.262C45 99.7313 44.8293 100.137 44.488 100.478C44.1467 100.819 43.7413 100.99 43.272 100.99H1.928C1.45867 100.99 1.05333 100.819 0.711998 100.478C0.370664 100.137 0.199997 99.7313 0.199997 99.262L0.199997 59.454C0.199997 58.9847 0.370664 58.5793 0.711998 58.238C1.05333 57.8967 1.45867 57.726 1.928 57.726H10.952C11.4213 57.726 11.8267 57.8967 12.168 58.238C12.5093 58.5793 12.68 58.9847 12.68 59.454V84.35H16.712V62.974C16.712 62.5047 16.8827 62.0993 17.224 61.758C17.5653 61.4167 17.9707 61.246 18.44 61.246H26.76C27.2293 61.246 27.6347 61.4167 27.976 61.758C28.3173 62.0993 28.488 62.5047 28.488 62.974L28.488 84.35H32.52L32.52 58.814ZM21.64 6.871C22.152 5.207 23.2827 3.77766 25.032 2.583C26.7387 1.38833 28.7013 0.790997 30.92 0.790997C35.656 0.790997 39.1973 2.327 41.544 5.399C43.848 8.471 45 12.951 45 18.839V45.207C45 45.6763 44.8293 46.0817 44.488 46.423C44.1467 46.7643 43.7413 46.935 43.272 46.935H1.928C1.45867 46.935 1.05333 46.7643 0.711998 46.423C0.370664 46.0817 0.199997 45.6763 0.199997 45.207L0.199997 19.479C0.199997 13.4203 1.30933 8.96166 3.528 6.103C5.704 3.20167 9.01067 1.751 13.448 1.751H13.64C15.688 1.751 17.4373 2.30567 18.888 3.415C20.3387 4.52433 21.256 5.67633 21.64 6.871ZM14.024 19.095C13.256 19.095 12.5947 19.3297 12.04 19.799C11.4853 20.2257 11.208 20.8657 11.208 21.719L11.208 30.295H17.032V21.719C17.032 20.8657 16.7333 20.2257 16.136 19.799C15.496 19.3297 14.792 19.095 14.024 19.095ZM33.992 21.015C33.992 20.0337 33.672 19.3083 33.032 18.839C32.3493 18.327 31.6027 18.071 30.792 18.071H30.728C29.9173 18.071 29.2133 18.3483 28.616 18.903C28.0187 19.415 27.72 20.119 27.72 21.015V30.295H33.992V21.015Z" fill="white"/>
</svg>
