<svg width="308" height="268" viewBox="0 0 308 268" fill="none" xmlns="http://www.w3.org/2000/svg">
<path d="M256 134.5C256 189.452 210.333 234 154 234C97.667 234 52 189.452 52 134.5C52 79.5477 97.667 35 154 35C210.333 35 256 79.5477 256 134.5Z" fill="url(#paint0_linear_108_4)"/>
<path d="M191.3 186.097C224.589 162.273 250.999 135.097 266.714 110.244C274.565 97.8287 279.887 85.7713 281.928 74.8371C283.972 63.8846 282.785 53.6114 276.963 45.4758C271.14 37.3402 261.8 32.902 250.773 31.3036C239.765 29.708 226.635 30.8563 212.351 34.2817C183.757 41.139 149.514 57.3698 116.225 81.1938C82.9351 105.018 56.5251 132.194 40.8099 157.047C32.9596 169.462 27.6369 181.52 25.5961 192.454C23.5518 203.406 24.7393 213.68 30.5617 221.815C36.384 229.951 45.7248 234.389 56.7512 235.987C67.7592 237.583 80.8891 236.435 95.1729 233.009C123.767 226.152 158.01 209.921 191.3 186.097Z" stroke="url(#paint1_linear_108_4)" stroke-width="10"/>
<defs>
<linearGradient id="paint0_linear_108_4" x1="154" y1="35" x2="154" y2="234" gradientUnits="userSpaceOnUse">
<stop stop-color="#FA00FF"/>
<stop offset="1" stop-color="#5200FF"/>
</linearGradient>
<linearGradient id="paint1_linear_108_4" x1="119.134" y1="85.2598" x2="190.262" y2="180.145" gradientUnits="userSpaceOnUse">
<stop stop-color="white"/>
<stop offset="1" stop-color="#A29898" stop-opacity="0"/>
</linearGradient>
</defs>
</svg>
