<svg width="1476" height="457" viewBox="0 0 1476 457" fill="none" xmlns="http://www.w3.org/2000/svg">
<path d="M183.068 3.59034C106.444 11.4229 1 79.5752 1 79.5752V456H1475V3.59034C1475 3.59034 1438.36 52.9451 1403.67 65.0781C1346.72 84.9938 1315.37 4.87826 1256.52 18.0874C1214.45 27.5299 1207.46 73.7575 1164.74 79.5752C1117.24 86.0427 1097.12 45.7876 1050.51 34.5841C927.519 5.02108 853.849 104.136 729.77 79.5752C692.226 72.1436 674.049 47.0562 635.992 51.0809C607.604 54.083 595.618 70.1884 568.652 79.5752C526.116 94.3822 501.21 110.7 456.419 106.07C393.966 99.614 381.262 38.0976 321.738 18.0874C270.117 0.733896 237.235 -1.94672 183.068 3.59034Z" fill="#0B011A" stroke="black"/>
</svg>
